<svg width="52" height="53" viewBox="0 0 52 53" fill="none" xmlns="http://www.w3.org/2000/svg">
  <line x1="26" y1="0" x2="26" y2="53" stroke="#A99FBF" stroke-width="0.5"/>
  <path d="M33 10C30.6667 10 26 16.6667 26 20C26 16.6667 21.3333 10 19 10C21.3333 10 26 3.33333 26 0C26 3.33333 30.6667 10 33 10Z" fill="#A99FBF"/>
  <path d="M33 27C30.6667 27 26 33.6667 26 37C26 33.6667 21.3333 27 19 27C21.3333 27 26 20.3333 26 17C26 20.3333 30.6667 27 33 27Z" fill="#A99FBF"/>
  <path d="M33 43C30.6667 43 26 49.6667 26 53C26 49.6667 21.3333 43 19 43C21.3333 43 26 36.3333 26 33C26 36.3333 30.6667 43 33 43Z" fill="#A99FBF"/>
</svg>