<svg xmlns="http://www.w3.org/2000/svg" width="5.213ex" height="1.92ex" role="img" focusable="false" viewBox="0 -683 2304.2 848.6" xmlns:xlink="http://www.w3.org/1999/xlink" aria-hidden="true" style="vertical-align: -0.375ex;"><defs><path id="MJX-1-TEX-C-58" d="M324 614Q291 576 250 573Q231 573 231 584Q231 589 232 592Q235 601 244 614T271 643T324 671T400 683H403Q462 683 481 610Q485 594 490 545T498 454L501 413Q504 413 551 442T648 509T705 561Q707 565 707 578Q707 610 682 614Q667 614 667 626Q667 641 695 662T755 683Q765 683 775 680T796 662T807 623Q807 596 792 572T713 499T530 376L505 361V356Q508 346 511 278T524 148T557 75Q569 69 580 69Q585 69 593 77Q624 108 660 110Q667 110 670 110T676 106T678 94Q668 59 624 30T510 0Q487 0 471 9T445 32T430 71T422 117T417 173Q416 183 416 188Q413 214 411 244T407 286T405 299Q403 299 344 263T223 182T154 122Q152 118 152 105Q152 69 180 69Q183 69 187 66T191 60L192 58V56Q192 41 163 21T105 0Q94 0 84 3T63 21T52 60Q52 77 56 90T85 131T155 191Q197 223 259 263T362 327T402 352L391 489Q391 492 390 505T387 526T384 547T379 568T372 586T361 602T348 611Q346 612 341 613T333 614H324Z"/><path id="MJX-1-TEX-N-31" d="M213 578L200 573Q186 568 160 563T102 556H83V602H102Q149 604 189 617T245 641T273 663Q275 666 285 666Q294 666 302 660V361L303 61Q310 54 315 52T339 48T401 46H427V0H416Q395 3 257 3Q121 3 100 0H88V46H114Q136 46 152 46T177 47T193 50T201 52T207 57T213 61V578Z"/><path id="MJX-1-TEX-N-34" d="M462 0Q444 3 333 3Q217 3 199 0H190V46H221Q241 46 248 46T265 48T279 53T286 61Q287 63 287 115V165H28V211L179 442Q332 674 334 675Q336 677 355 677H373L379 671V211H471V165H379V114Q379 73 379 66T385 54Q393 47 442 46H471V0H462ZM293 211V545L74 212L183 211H293Z"/><path id="MJX-1-TEX-N-33" d="M127 463Q100 463 85 480T69 524Q69 579 117 622T233 665Q268 665 277 664Q351 652 390 611T430 522Q430 470 396 421T302 350L299 348Q299 347 308 345T337 336T375 315Q457 262 457 175Q457 96 395 37T238 -22Q158 -22 100 21T42 130Q42 158 60 175T105 193Q133 193 151 175T169 130Q169 119 166 110T159 94T148 82T136 74T126 70T118 67L114 66Q165 21 238 21Q293 21 321 74Q338 107 338 175V195Q338 290 274 322Q259 328 213 329L171 330L168 332Q166 335 166 348Q166 366 174 366Q202 366 232 371Q266 376 294 413T322 525V533Q322 590 287 612Q265 626 240 626Q208 626 181 615T143 592T132 580H135Q138 579 143 578T153 573T165 566T175 555T183 540T186 520Q186 498 172 481T127 463Z"/></defs><g stroke="currentColor" fill="currentColor" stroke-width="0" transform="scale(1,-1)"><g data-mml-node="math"><g data-mml-node="mstyle" fill="#D90B42" stroke="#D90B42"><g data-mml-node="TeXAtom" data-mjx-texclass="ORD"><g data-mml-node="mi"><use data-c="58" xmlns:xlink="http://www.w3.org/1999/xlink" xlink:href="#MJX-1-TEX-C-58"/></g></g></g><g data-mml-node="mstyle" fill="white" stroke="white" transform="translate(807,0)"><g data-mml-node="msub"><g data-mml-node="mi"/><g data-mml-node="TeXAtom" transform="translate(33,-150) scale(0.707)" data-mjx-texclass="ORD"><g data-mml-node="mn"><use data-c="31" xmlns:xlink="http://www.w3.org/1999/xlink" xlink:href="#MJX-1-TEX-N-31"/><use data-c="34" xmlns:xlink="http://www.w3.org/1999/xlink" xlink:href="#MJX-1-TEX-N-34" transform="translate(500,0)"/><use data-c="33" xmlns:xlink="http://www.w3.org/1999/xlink" xlink:href="#MJX-1-TEX-N-33" transform="translate(1000,0)"/><use data-c="34" xmlns:xlink="http://www.w3.org/1999/xlink" xlink:href="#MJX-1-TEX-N-34" transform="translate(1500,0)"/></g></g></g></g></g></g></svg>